<svg id="logo_azul" data-name="logo azul" xmlns="http://www.w3.org/2000/svg" viewBox="0 0 1407.24 1581.06"><defs><style>.cls-1{font-size:808.37px;font-family:SFBurlingtonScript, SF Burlington Script;}.cls-1,.cls-2{fill:#0b1840;}</style></defs><title>logo chronos 2022</title><text class="cls-1" transform="translate(0 1393.96)">Chronos</text><path class="cls-2" d="M910.68,737.33c86.57,128.36,170.29,268.94,254.41,397.56,5.2,10.06,21.77,27.07,19.12,36.24-57.87,59.22-233.48,91.39-276.82,87.45-77-1.89-188.15-39-269.45-52.47-14.44,7.5-6.75,20.48,5.49,25.54,199.11,113.66,352,130.61,532.39,21.91,93.48-62.86,87.19-60.9,68.07-89.28-353.74-494.92-327.61-443.37-310.68-466,0-.33-2.19-1.34-19-12.92" transform="translate(-195.38 -109.97)"/><path class="cls-2" d="M897.15,683.93C837.33,598,783.79,508.87,727.6,420.85c-94-152.88-109.66-153.64-75.69-173.39,293.76-148,404.9-61.61,493.57-29.66,5.29,3,27.3,8.4,9.88-10.62L1111,178.05C979.66,88.62,801.31,88.37,666,171c-128.6,82.53-109.63,76.08-88.19,107.54,47.09,65.1,92.43,126.11,138.36,188.79C746.49,510.15,890.76,703,883.37,712.89c-1.17,5.94-5.61,12-11.83,15.53-79.51,56.91-137.2,128.63-194,204.81-21.73,30.54-44.57,58.44-65.53,90.5-2.23,16.71,16,16.74,20.7,10.12,41.6-36.34,208.7-219.36,260.94-297.91" transform="translate(-195.38 -109.97)"/><path class="cls-2" d="M712.49,1133a26,26,0,0,0,16.32,38c119.79,29.94,220.57,14.11,342.61-18.71,39.41-10.6-112.22-237.66-159.9-301.71-7.69-10.33-21.34-9.4-32.3,4.89C843.1,902.55,750.13,1066.05,712.49,1133Z" transform="translate(-195.38 -109.97)"/><path class="cls-2" d="M902.94,656.46c10.63,7.44,19.81-1.68,25.51-9.08,67.22-80.64,76.69-81.54,46.89-89.52-36.09-8.18-66.86,14.77-104.39,12.93-9.07-2.14-18.12,2.12-13.75,11.44" transform="translate(-195.38 -109.97)"/></svg>