<?xml version="1.0" encoding="utf-8"?>
<!-- Generator: Adobe Illustrator 24.0.1, SVG Export Plug-In . SVG Version: 6.00 Build 0)  -->
<svg version="1.1" id="Camada_1" xmlns="http://www.w3.org/2000/svg" xmlns:xlink="http://www.w3.org/1999/xlink" x="0px" y="0px"
	 viewBox="0 0 48 48" style="enable-background:new 0 0 48 48;" xml:space="preserve">
<style type="text/css">
	.st0{fill:#050A61;}
</style>
<path class="st0" d="M20,23.8c-2.2,0-4-0.7-5.4-2.1c-1.4-1.4-2.1-3.2-2.1-5.4s0.7-4,2.1-5.4s3.2-2.1,5.4-2.1s4,0.7,5.4,2.1
	c1.4,1.4,2.1,3.2,2.1,5.4s-0.7,4-2.1,5.4C24,23.1,22.2,23.8,20,23.8z M4,39.8v-4.7c0-1.2,0.3-2.2,0.9-3.1c0.6-0.9,1.4-1.7,2.5-2.1
	c2.4-1.1,4.6-1.8,6.7-2.3c2.1-0.5,4-0.7,5.9-0.7h1.1c-0.2,0.5-0.3,0.9-0.5,1.4c-0.1,0.5-0.2,1-0.3,1.6H20c-1.9,0-3.8,0.2-5.7,0.6
	c-1.9,0.4-3.8,1.1-5.7,2.1c-0.5,0.3-0.9,0.6-1.2,1.1c-0.3,0.5-0.4,1-0.4,1.5v1.7h13.5c0.2,0.6,0.4,1.1,0.6,1.6
	c0.2,0.5,0.5,0.9,0.9,1.4H4z M33.3,42l-0.5-3.3c-0.6-0.2-1.1-0.4-1.7-0.7c-0.6-0.3-1.1-0.7-1.5-1.1l-2.8,0.6l-1.3-2.1l2.4-2.2
	c-0.1-0.3-0.1-0.7-0.1-1.3c0-0.5,0-1,0.1-1.3l-2.4-2.2l1.3-2.1l2.8,0.6c0.4-0.4,0.9-0.8,1.5-1.1s1.2-0.6,1.7-0.7l0.5-3.3H36l0.5,3.3
	c0.6,0.2,1.1,0.4,1.7,0.7c0.6,0.3,1.1,0.7,1.5,1.1l2.8-0.6l1.3,2.1l-2.3,2.2c0.1,0.3,0.1,0.7,0.1,1.3c0,0.5,0,0.9-0.1,1.3l2.3,2.2
	l-1.3,2.1l-2.8-0.6c-0.4,0.4-0.9,0.8-1.5,1.1c-0.6,0.3-1.2,0.6-1.7,0.7L36,42H33.3z M34.7,36c1.2,0,2.2-0.4,2.9-1.1
	c0.7-0.7,1.1-1.7,1.1-2.9c0-1.2-0.4-2.2-1.1-2.9S35.9,28,34.7,28s-2.2,0.4-2.9,1.1c-0.7,0.7-1.1,1.7-1.1,2.9c0,1.2,0.4,2.2,1.1,2.9
	C32.5,35.6,33.5,36,34.7,36z M20,20.8c1.3,0,2.4-0.4,3.2-1.3c0.8-0.9,1.3-1.9,1.3-3.2s-0.4-2.4-1.3-3.2c-0.9-0.8-1.9-1.3-3.2-1.3
	s-2.4,0.4-3.2,1.3c-0.8,0.9-1.3,1.9-1.3,3.2s0.4,2.4,1.3,3.2C17.6,20.3,18.7,20.8,20,20.8z"/>
</svg>
