<?xml version="1.0" encoding="utf-8"?>
<!-- Generator: Adobe Illustrator 24.0.1, SVG Export Plug-In . SVG Version: 6.00 Build 0)  -->
<svg version="1.1" id="Camada_1" xmlns="http://www.w3.org/2000/svg" xmlns:xlink="http://www.w3.org/1999/xlink" x="0px" y="0px"
	 viewBox="0 0 48 48" style="enable-background:new 0 0 48 48;" xml:space="preserve">
<style type="text/css">
	.st0{fill:#050A61;}
</style>
<path class="st0" d="M24,28c1.1,0,2-0.4,2.8-1.2C27.6,26,28,25.1,28,24s-0.4-2-1.2-2.8C26,20.4,25.1,20,24,20s-2,0.4-2.8,1.2
	C20.4,22,20,22.9,20,24s0.4,2,1.2,2.8C22,27.6,22.9,28,24,28z M16,36h16v-1.2c0-0.8-0.2-1.5-0.6-2.2c-0.4-0.7-1-1.2-1.8-1.5
	c-0.9-0.4-1.8-0.6-2.7-0.9C26,30.1,25,30,24,30s-2,0.1-2.9,0.3c-0.9,0.2-1.8,0.5-2.7,0.9c-0.8,0.3-1.4,0.8-1.8,1.5
	c-0.4,0.7-0.6,1.4-0.6,2.2L16,36z M37,44H11c-0.8,0-1.5-0.3-2.1-0.9C8.3,42.5,8,41.8,8,41V7c0-0.8,0.3-1.5,0.9-2.1
	C9.5,4.3,10.2,4,11,4h17l12,11.9v25c0,0.8-0.3,1.5-0.9,2.1C38.5,43.7,37.8,44,37,44z M37,41V17.3L26.7,7H11v34H37z M11,41V7V41z"/>
</svg>
