<?xml version="1.0" encoding="utf-8"?>
<!-- Generator: Adobe Illustrator 24.0.1, SVG Export Plug-In . SVG Version: 6.00 Build 0)  -->
<svg version="1.1" id="Camada_1" xmlns="http://www.w3.org/2000/svg" xmlns:xlink="http://www.w3.org/1999/xlink" x="0px" y="0px"
	 viewBox="0 0 48 48" style="enable-background:new 0 0 48 48;" xml:space="preserve">
<style type="text/css">
	.st0{fill:#050A61;}
</style>
<path class="st0" d="M22.5,38h3v-2h3c0.4,0,0.8-0.1,1.1-0.4c0.3-0.3,0.4-0.6,0.4-1.1V28c0-0.4-0.1-0.8-0.4-1.1
	c-0.3-0.3-0.6-0.4-1.1-0.4H21V23h9v-3h-4.5v-2h-3v2h-3c-0.4,0-0.8,0.1-1.1,0.4C18.1,20.7,18,21,18,21.5V28c0,0.4,0.1,0.8,0.4,1.1
	s0.6,0.4,1.1,0.4H27V33h-9v3h4.5V38z M11,44c-0.8,0-1.5-0.3-2.1-0.9C8.3,42.5,8,41.8,8,41V7c0-0.8,0.3-1.5,0.9-2.1
	C9.5,4.3,10.2,4,11,4h18l11,10.9v26c0,0.8-0.3,1.5-0.9,2.1C38.5,43.7,37.8,44,37,44H11z M26.5,15V7H11v34h26v-26L26.5,15z M11,7v7.9
	V7v34V7z"/>
</svg>
